# xmcd
#
# Track frame offsets:
#	150
#	15685
#	26998
#	37888
#	63133
#	75239
#	88458
#	104658
#	117204
#	131852
#	140736
#	149840
#	161457
#	175128
#	191327
#	207557
#	219686
#
# Disc length: 3222 seconds
#
# Revision: 10
# Processed by: cddbd v1.5.2PL0 Copyright (c) Steve Scherf et al.
# Submitted via: audiograbber 1.83.01
#
DISCID=010c9411
DTITLE=Thys Bosveldklong - Boeretroos
DYEAR=2004
DGENRE=Other
TTITLE0=Thys - Die Apie se Bruilof
TTITLE1=Thys - Spookasem
TTITLE2=Thys - Bosveldbul (Jan die Bielie van de Bosveld)
TTITLE3=Thys - Die Apie Keurspiel: Die Apie sit en Droom - Gee my Springbokbilto
TTITLE3=ng - Groenblarie - You are my sunshine - Rooi Rok Bokkie - Roelandstraat - L
TTITLE3=oslappie - Jaloersbokkie - Patayo - Tannie met die Rooi Rok: Hasie
TTITLE4=Thys - Nursie
TTITLE5=Thys - Koe-Koek Hennetje
TTITLE6=Thys - Boeretroos
TTITLE7=Thys - Die Witbroek
TTITLE8=Thys - Daar doer in die Bosveld
TTITLE9=Thys - Tant Antjie ruik na Gom
TTITLE10=Thys - Die Apie sit en droom
TTITLE11=Thys - Die Kalfiewals
TTITLE12=Thys - Tant san van Christiana
TTITLE13=Thys - En Koppie Koffie
TTITLE14=Thys - Thys se Dilemma
TTITLE15=Thys - Sing 'n lekker Liedje
TTITLE16=Thys - Thys'e Dialog
EXTD=
EXTT0=
EXTT1=
EXTT2=
EXTT3=
EXTT4=
EXTT5=
EXTT6=
EXTT7=
EXTT8=
EXTT9=
EXTT10=
EXTT11=
EXTT12=
EXTT13=
EXTT14=
EXTT15=
EXTT16=
PLAYORDER=
